# File created by Blade
# Date/Time:  Thu Jan 22 16:21:49 2015
#---------------------------------------------------------
:version 1.10
:name HOM
:units
  mass 1.0
  length 1.000000
  angle deg
:documentation
     Acclaim Skeleton File
:root
   axis xyz
   order TX TY TZ RX RY RZ
   position 0.000000 0.000000 0.000000
   orientation 0 0 0
:bonedata
   begin
      id 1
      name RightUpLeg_dum
      direction -1.000000 0.000000 0.000000
      length 3.766986
      axis 0.0 0.0 0.0 xyz
   end
   begin
      id 2
      name LeftUpLeg_dum
      direction 1.000000 0.000000 0.000000
      length 3.766986
      axis 0.0 0.0 0.0 xyz
   end
   begin
      id 3
      name Spine_dum
      direction 0.000000 1.000000 0.000000
      length 7.779697
      axis 0.0 0.0 0.0 xyz
   end
   begin
      id 4
      name RightUpLeg
      direction 0.000000 -1.000000 0.000000
      length 18.017682
      axis 0.0 0.0 0.0 xyz
      dof rx ry rz
   end
   begin
      id 5
      name RightLeg
      direction 0.000000 -1.000000 0.000000
      length 16.881075
      axis 0.0 0.0 0.0 xyz
      dof rx ry rz
   end
   begin
      id 6
      name RightFoot
      direction 0.000000 -0.258819 0.965926
      length 5.770812
      axis 15.0 0.0 0.0 xyz
      dof rx ry rz
   end
   begin
      id 7
      name RightToeBase
      direction 0.000000 0.000000 1.000000
      length 2.952750
      axis 0.0 0.0 0.0 xyz
      dof rx ry rz
   end
   begin
      id 8
      name LeftUpLeg
      direction 0.000000 -1.000000 0.000000
      length 18.017682
      axis 0.0 0.0 0.0 xyz
      dof rx ry rz
   end
   begin
      id 9
      name LeftLeg
      direction 0.000000 -1.000000 0.000000
      length 16.881075
      axis 0.0 0.0 0.0 xyz
      dof rx ry rz
   end
   begin
      id 10
      name LeftFoot
      direction 0.000000 -0.258819 0.965926
      length 5.770812
      axis 15.0 0.0 0.0 xyz
      dof rx ry rz
   end
   begin
      id 11
      name LeftToeBase
      direction 0.000000 0.000000 1.000000
      length 2.952750
      axis 0.0 0.0 0.0 xyz
      dof rx ry rz
   end
   begin
      id 12
      name Spine
      direction 0.000000 1.000000 0.000000
      length 0.000000
      axis 0.0 0.0 0.0 xyz
      dof rx ry rz
   end
   begin
      id 13
      name Spine_dum1
      direction 0.000000 1.000000 0.000000
      length 10.941760
      axis 0.0 0.0 0.0 xyz
   end
   begin
      id 14
      name Spine_dum2
      direction 0.000000 1.000000 0.000000
      length 10.941760
      axis 0.0 0.0 0.0 xyz
   end
   begin
      id 15
      name Spine_dum3
      direction 0.000000 1.000000 0.000000
      length 16.646042
      axis 0.0 0.0 0.0 xyz
   end
   begin
      id 16
      name RightShoulder
      direction -1.000000 0.000000 0.000000
      length 7.708937
      axis 0.0 0.0 90.0 xyz
      dof rx ry rz
   end
   begin
      id 17
      name RightArm
      direction -1.000000 0.000000 0.000000
      length 11.521345
      axis 0.0 0.0 90.0 xyz
      dof rx ry rz
   end
   begin
      id 18
      name RightForeArm
      direction -1.000000 0.000000 0.000000
      length 10.175898
      axis 0.0 0.0 90.0 xyz
      dof ry rz rx
   end
   begin
      id 19
      name RightHand
      direction -1.000000 0.000000 0.000000
      length 0.000000
      axis 0.0 0.0 90.0 xyz
      dof rx ry rz
   end
   begin
      id 20
      name RightHand_dum1
      direction -1.000000 0.000000 0.000000
      length 3.937000
      axis 0.0 0.0 90.0 xyz
   end
   begin
      id 21
      name RightHand_dum2
      direction 0.000000 0.000000 0.000000
      length 0.000000
      axis 0.0 0.0 90.0 xyz
   end
   begin
      id 22
      name RightHandThumb1
      direction 0.000000 0.000000 1.000000
      length 3.937000
      axis 0.0 0.0 90.0 xyz
      dof rx rz ry
   end
   begin
      id 23
      name LeftShoulder
      direction 1.000000 0.000000 0.000000
      length 7.708937
      axis 0.0 0.0 -90.0 xyz
      dof rx ry rz
   end
   begin
      id 24
      name LeftArm
      direction 1.000000 0.000000 0.000000
      length 11.521345
      axis 0.0 0.0 -90.0 xyz
      dof rx ry rz
   end
   begin
      id 25
      name LeftForeArm
      direction 1.000000 0.000000 0.000000
      length 10.175898
      axis 0.0 0.0 -90.0 xyz
      dof ry rz rx
   end
   begin
      id 26
      name LeftHand
      direction 1.000000 0.000000 0.000000
      length 0.000000
      axis 0.0 0.0 -90.0 xyz
      dof rx ry rz
   end
   begin
      id 27
      name LeftHand_dum1
      direction 1.000000 0.000000 0.000000
      length 3.937000
      axis 0.0 0.0 -90.0 xyz
   end
   begin
      id 28
      name LeftHand_dum2
      direction 0.000000 0.000000 0.000000
      length 0.000000
      axis 0.0 0.0 -90.0 xyz
   end
   begin
      id 29
      name LeftHandThumb1
      direction 0.000000 0.000000 1.000000
      length 3.937000
      axis 0.0 0.0 -90.0 xyz
      dof rx rz ry
   end
   begin
      id 30
      name Head
      direction 0.000000 1.000000 0.000000
      length 4.527550
      axis 0.0 0.0 0.0 xyz
      dof rx ry rz
   end
:hierarchy
   begin
      root RightUpLeg_dum LeftUpLeg_dum Spine_dum
      RightUpLeg_dum RightUpLeg
      LeftUpLeg_dum LeftUpLeg
      Spine_dum Spine
      RightUpLeg RightLeg
      RightLeg RightFoot
      RightFoot RightToeBase
      LeftUpLeg LeftLeg
      LeftLeg LeftFoot
      LeftFoot LeftToeBase
      Spine Spine_dum1 Spine_dum2 Spine_dum3
      Spine_dum1 RightShoulder
      Spine_dum2 LeftShoulder
      Spine_dum3 Head
      RightShoulder RightArm
      RightArm RightForeArm
      RightForeArm RightHand
      RightHand RightHand_dum1 RightHand_dum2
      RightHand_dum2 RightHandThumb1
      LeftShoulder LeftArm
      LeftArm LeftForeArm
      LeftForeArm LeftHand
      LeftHand LeftHand_dum1 LeftHand_dum2
      LeftHand_dum2 LeftHandThumb1
   end

# File created by Blade
# Date/Time:  Thu Jan 22 16:21:39 2015
# Frame Rate: 120.000 fps
#------------------------------------------------------
:FULLY-SPECIFIED
:DEGREES
87
root 1.706205 37.110165 2.565845 -5.244933 -1.425988 1.935202
RightUpLeg 12.992287 -2.500230 -4.034869
RightLeg -5.815622 -0.000000 0.000000
RightFoot -12.526586 -17.720244 18.170125
RightToeBase 14.558188 -0.000000 -0.000000
LeftUpLeg -0.607331 0.469604 5.570209
LeftLeg 20.811834 -0.000000 -0.000000
LeftFoot -11.888827 7.102914 -22.591592
LeftToeBase 2.558348 -0.000000 -0.000000
Spine 13.803398 -6.004248 -1.361841
RightShoulder -3.359301 -12.710640 -26.326093
RightArm 12.395714 28.221189 36.325757
RightForeArm 6.465094 0.000000 20.668574
RightHand 2.409343 -0.000000 3.260186
RightHandThumb1 -24.326973 -0.000000 -32.862282
LeftShoulder -23.343170 32.946069 11.010831
LeftArm 52.926216 -46.253721 -67.537858
LeftForeArm 40.398910 0.000000 11.131907
LeftHand -20.289604 0.000000 -5.162263
LeftHandThumb1 -26.253704 0.000000 33.147579
Head 3.118896 15.665102 -1.864863
88
root 1.720623 37.114979 2.552469 -5.260354 -1.391482 1.998498
RightUpLeg 12.976751 -2.594520 -4.137325
RightLeg -5.790759 -0.000000 0.000000
RightFoot -12.484755 -17.663632 18.148150
RightToeBase 14.551376 -0.000000 -0.000000
LeftUpLeg -1.061730 0.438132 5.583443
LeftLeg 21.654159 -0.000000 -0.000000
LeftFoot -11.776370 6.563704 -22.872805
LeftToeBase 2.463854 -0.000000 -0.000000
Spine 13.966824 -6.005415 -1.394614
RightShoulder -3.356418 -12.691025 -26.349545
RightArm 12.342595 28.292270 36.384718
RightForeArm 6.418613 -0.000000 20.698268
RightHand 2.410606 -0.000000 3.211890
RightHandThumb1 -24.326973 -0.000000 -32.862282
LeftShoulder -23.279367 32.888379 11.066643
LeftArm 52.846200 -46.169152 -67.444580
LeftForeArm 40.306393 -0.000000 11.149968
LeftHand -20.285277 -0.000000 -5.174659
LeftHandThumb1 -26.253704 0.000000 33.147579
Head 3.162440 15.782794 -1.956679
89
root 1.736400 37.118351 2.542024 -5.274522 -1.390400 2.051858
RightUpLeg 12.957088 -2.688547 -4.232871
RightLeg -5.762205 -0.000000 0.000000
RightFoot -12.465749 -17.583036 18.165969
RightToeBase 14.574043 -0.000000 -0.000000
LeftUpLeg -1.474239 0.421375 5.610640
LeftLeg 22.421958 -0.000000 -0.000000
LeftFoot -11.623163 5.991254 -23.039299
LeftToeBase 2.163611 -0.000000 -0.000000
Spine 14.107747 -5.986794 -1.422152
RightShoulder -3.339455 -12.702276 -26.372303
RightArm 12.326092 28.327468 36.439835
RightForeArm 6.494736 -0.000000 20.668631
RightHand 2.563251 0.000000 3.202210
RightHandThumb1 -24.326973 -0.000000 -32.862282
LeftShoulder -23.247972 32.860579 11.098170
LeftArm 52.829271 -46.086763 -67.362929
LeftForeArm 40.258711 -0.000000 11.126925
LeftHand -20.230739 0.000000 -5.175718
LeftHandThumb1 -26.253704 0.000000 33.147579
Head 3.235603 15.955990 -2.022415
90
root 1.752836 37.121438 2.532517 -5.289172 -1.421074 2.092914
RightUpLeg 12.966334 -2.674091 -4.299494
RightLeg -5.800923 -0.000000 0.000000
RightFoot -12.415689 -17.593092 18.177384
RightToeBase 14.561004 -0.000000 -0.000000
LeftUpLeg -1.853651 0.409990 5.672608
LeftLeg 23.143295 -0.000000 -0.000000
LeftFoot -11.500102 5.282520 -23.110281
LeftToeBase 2.090069 -0.000000 -0.000000
Spine 14.251565 -5.936604 -1.453054
RightShoulder -3.332288 -12.739097 -26.388219
RightArm 12.349043 28.396843 36.532438
RightForeArm 6.541767 -0.000000 20.650151
RightHand 2.583174 -0.000000 3.287567
RightHandThumb1 -24.326973 -0.000000 -32.862282
LeftShoulder -23.242565 32.846673 11.130675
LeftArm 52.849527 -46.011961 -67.315073
LeftForeArm 40.272352 -0.000000 11.131464
LeftHand -20.183891 0.000000 -5.305415
LeftHandThumb1 -26.253704 0.000000 33.147579
Head 3.301270 16.083801 -2.080275
